<svg width="145" height="46" viewBox="0 0 145 46" fill="none" xmlns="http://www.w3.org/2000/svg">
<path d="M7.67578 11.9258V20.0703C8.67839 19.0286 9.70052 18.2344 10.7422 17.6875C11.7839 17.1276 13.0729 16.8477 14.6094 16.8477C16.3802 16.8477 17.9297 17.2708 19.2578 18.1172C20.599 18.9505 21.6341 20.168 22.3633 21.7695C23.1055 23.3581 23.4766 25.2461 23.4766 27.4336C23.4766 29.0482 23.2682 30.5326 22.8516 31.8867C22.4479 33.2279 21.8555 34.3932 21.0742 35.3828C20.293 36.3724 19.3424 37.1406 18.2227 37.6875C17.1159 38.2214 15.8919 38.4883 14.5508 38.4883C13.7305 38.4883 12.9557 38.3906 12.2266 38.1953C11.5104 38 10.8984 37.7461 10.3906 37.4336C9.88281 37.1081 9.44661 36.776 9.08203 36.4375C8.73047 36.099 8.26172 35.5911 7.67578 34.9141V35.4414C7.67578 36.444 7.4349 37.2057 6.95312 37.7266C6.47135 38.2344 5.85938 38.4883 5.11719 38.4883C4.36198 38.4883 3.75651 38.2344 3.30078 37.7266C2.85807 37.2057 2.63672 36.444 2.63672 35.4414V12.1602C2.63672 11.0794 2.85156 10.2656 3.28125 9.71875C3.72396 9.15885 4.33594 8.87891 5.11719 8.87891C5.9375 8.87891 6.56901 9.14583 7.01172 9.67969C7.45443 10.2005 7.67578 10.9492 7.67578 11.9258ZM7.92969 27.7656C7.92969 29.888 8.41146 31.5221 9.375 32.668C10.3516 33.8008 11.6276 34.3672 13.2031 34.3672C14.5443 34.3672 15.6966 33.7878 16.6602 32.6289C17.6367 31.457 18.125 29.7839 18.125 27.6094C18.125 26.2031 17.9232 24.9922 17.5195 23.9766C17.1159 22.9609 16.543 22.1797 15.8008 21.6328C15.0586 21.0729 14.1927 20.793 13.2031 20.793C12.1875 20.793 11.2826 21.0729 10.4883 21.6328C9.69401 22.1797 9.06901 22.9805 8.61328 24.0352C8.15755 25.0768 7.92969 26.3203 7.92969 27.7656ZM27.207 35.2461V12.1211C27.207 11.0534 27.4414 10.2461 27.9102 9.69922C28.3919 9.15234 29.0365 8.87891 29.8438 8.87891C30.651 8.87891 31.3021 9.15234 31.7969 9.69922C32.2917 10.2331 32.5391 11.0404 32.5391 12.1211V35.2461C32.5391 36.3268 32.2852 37.1406 31.7773 37.6875C31.2826 38.2214 30.638 38.4883 29.8438 38.4883C29.0625 38.4883 28.4245 38.2083 27.9297 37.6484C27.4479 37.0885 27.207 36.2878 27.207 35.2461ZM43.3984 19.8359V35.2461C43.3984 36.3138 43.1445 37.1211 42.6367 37.668C42.1289 38.2148 41.4844 38.4883 40.7031 38.4883C39.9219 38.4883 39.2839 38.2083 38.7891 37.6484C38.3073 37.0885 38.0664 36.2878 38.0664 35.2461V19.9922C38.0664 18.9375 38.3073 18.1432 38.7891 17.6094C39.2839 17.0755 39.9219 16.8086 40.7031 16.8086C41.4844 16.8086 42.1289 17.0755 42.6367 17.6094C43.1445 18.1432 43.3984 18.8854 43.3984 19.8359ZM40.7617 14.3281C40.0195 14.3281 39.3815 14.1003 38.8477 13.6445C38.3268 13.1888 38.0664 12.5443 38.0664 11.7109C38.0664 10.9557 38.3333 10.3372 38.8672 9.85547C39.4141 9.36068 40.0456 9.11328 40.7617 9.11328C41.4518 9.11328 42.0638 9.33464 42.5977 9.77734C43.1315 10.2201 43.3984 10.8646 43.3984 11.7109C43.3984 12.5312 43.138 13.1758 42.6172 13.6445C42.0964 14.1003 41.4779 14.3281 40.7617 14.3281ZM53.8477 11.9258V20.0703C54.8503 19.0286 55.8724 18.2344 56.9141 17.6875C57.9557 17.1276 59.2448 16.8477 60.7812 16.8477C62.5521 16.8477 64.1016 17.2708 65.4297 18.1172C66.7708 18.9505 67.806 20.168 68.5352 21.7695C69.2773 23.3581 69.6484 25.2461 69.6484 27.4336C69.6484 29.0482 69.4401 30.5326 69.0234 31.8867C68.6198 33.2279 68.0273 34.3932 67.2461 35.3828C66.4648 36.3724 65.5143 37.1406 64.3945 37.6875C63.2878 38.2214 62.0638 38.4883 60.7227 38.4883C59.9023 38.4883 59.1276 38.3906 58.3984 38.1953C57.6823 38 57.0703 37.7461 56.5625 37.4336C56.0547 37.1081 55.6185 36.776 55.2539 36.4375C54.9023 36.099 54.4336 35.5911 53.8477 34.9141V35.4414C53.8477 36.444 53.6068 37.2057 53.125 37.7266C52.6432 38.2344 52.0312 38.4883 51.2891 38.4883C50.5339 38.4883 49.9284 38.2344 49.4727 37.7266C49.0299 37.2057 48.8086 36.444 48.8086 35.4414V12.1602C48.8086 11.0794 49.0234 10.2656 49.4531 9.71875C49.8958 9.15885 50.5078 8.87891 51.2891 8.87891C52.1094 8.87891 52.7409 9.14583 53.1836 9.67969C53.6263 10.2005 53.8477 10.9492 53.8477 11.9258ZM54.1016 27.7656C54.1016 29.888 54.5833 31.5221 55.5469 32.668C56.5234 33.8008 57.7995 34.3672 59.375 34.3672C60.7161 34.3672 61.8685 33.7878 62.832 32.6289C63.8086 31.457 64.2969 29.7839 64.2969 27.6094C64.2969 26.2031 64.0951 24.9922 63.6914 23.9766C63.2878 22.9609 62.7148 22.1797 61.9727 21.6328C61.2305 21.0729 60.3646 20.793 59.375 20.793C58.3594 20.793 57.4544 21.0729 56.6602 21.6328C55.8659 22.1797 55.2409 22.9805 54.7852 24.0352C54.3294 25.0768 54.1016 26.3203 54.1016 27.7656Z" fill="white"/>
<circle cx="102.5" cy="23.5" r="21.5" fill="#DC32AC" fill-opacity="0.75"/>
<circle cx="123.5" cy="23.5" r="21.5" fill="#2C71F6" fill-opacity="0.75"/>
</svg>
