<svg width="24" height="24" viewBox="0 0 24 24" fill="none" xmlns="http://www.w3.org/2000/svg">
<path d="M19.9975 7.07125C20.0368 6.52037 19.6221 6.04189 19.0712 6.00254C18.5204 5.96319 18.0419 6.37787 18.0025 6.92875L19.9975 7.07125ZM18.1327 19.1425L17.1352 19.0712L18.1327 19.1425ZM5.86732 19.1425L6.86478 19.0712L5.86732 19.1425ZM5.99746 6.92875C5.95811 6.37787 5.47963 5.96319 4.92875 6.00254C4.37787 6.04189 3.96319 6.52037 4.00254 7.07125L5.99746 6.92875ZM11 11C11 10.4477 10.5523 10 10 10C9.44772 10 9 10.4477 9 11H11ZM9 17C9 17.5523 9.44772 18 10 18C10.5523 18 11 17.5523 11 17H9ZM15 11C15 10.4477 14.5523 10 14 10C13.4477 10 13 10.4477 13 11H15ZM13 17C13 17.5523 13.4477 18 14 18C14.5523 18 15 17.5523 15 17H13ZM14 7C14 7.55228 14.4477 8 15 8C15.5523 8 16 7.55228 16 7H14ZM8 7C8 7.55228 8.44772 8 9 8C9.55228 8 10 7.55228 10 7H8ZM4 6C3.44772 6 3 6.44772 3 7C3 7.55228 3.44772 8 4 8V6ZM20 8C20.5523 8 21 7.55228 21 7C21 6.44772 20.5523 6 20 6V8ZM18.0025 6.92875L17.1352 19.0712L19.1301 19.2137L19.9975 7.07125L18.0025 6.92875ZM16.1378 20H7.86224V22H16.1378V20ZM6.86478 19.0712L5.99746 6.92875L4.00254 7.07125L4.86986 19.2137L6.86478 19.0712ZM7.86224 20C7.3376 20 6.90216 19.5946 6.86478 19.0712L4.86986 19.2137C4.982 20.7837 6.28832 22 7.86224 22V20ZM17.1352 19.0712C17.0978 19.5946 16.6624 20 16.1378 20V22C17.7117 22 19.018 20.7837 19.1301 19.2137L17.1352 19.0712ZM9 11V17H11V11H9ZM13 11V17H15V11H13ZM10 4H14V2H10V4ZM14 4V7H16V4H14ZM10 7V4H8V7H10ZM14 4H16C16 2.89543 15.1046 2 14 2V4ZM10 2C8.89543 2 8 2.89543 8 4H10V2ZM4 8H20V6H4V8Z" fill="#FF6B6B"/>
</svg>
