<svg width="30" height="32" viewBox="0 0 30 32" fill="none" xmlns="http://www.w3.org/2000/svg">
<g clip-path="url(#clip0_41926_144)">
<path d="M15 8.16663V22.8333" stroke="#8C2EA5" stroke-width="2" stroke-linecap="round" stroke-linejoin="round"/>
<path d="M18.3333 10.8334H13.3333C12.7145 10.8334 12.121 11.0792 11.6834 11.5168C11.2458 11.9544 11 12.5479 11 13.1667C11 13.7855 11.2458 14.379 11.6834 14.8166C12.121 15.2542 12.7145 15.5 13.3333 15.5H16.6667C17.2855 15.5 17.879 15.7459 18.3166 16.1835C18.7542 16.621 19 17.2145 19 17.8334C19 18.4522 18.7542 19.0457 18.3166 19.4833C17.879 19.9209 17.2855 20.1667 16.6667 20.1667H11" stroke="#DC32AC" stroke-width="2" stroke-linecap="round" stroke-linejoin="round"/>
</g>
<path fill-rule="evenodd" clip-rule="evenodd" d="M15 27.5127C20.9616 27.5127 26.0526 22.3932 26.0526 15.75C26.0526 9.10676 20.9616 3.98734 15 3.98734C9.03844 3.98734 3.94737 9.10676 3.94737 15.75C3.94737 22.3932 9.03844 27.5127 15 27.5127ZM15 31.5C23.2843 31.5 30 24.4485 30 15.75C30 7.05152 23.2843 0 15 0C6.71573 0 0 7.05152 0 15.75C0 24.4485 6.71573 31.5 15 31.5Z" fill="#DC32AC" fill-opacity="0.53"/>
<path fill-rule="evenodd" clip-rule="evenodd" d="M0 15.2814C0 7.38561 6.56524 -0.877227 15.7166 0.075207C16.809 0.188901 17.6026 1.16884 17.4892 2.26397C17.3758 3.35909 16.3983 4.1547 15.3059 4.04101C9.05646 3.39059 3.97724 9.15248 3.97724 15.2814C3.97724 19.0925 5.12181 22.1373 7.00326 24.2065C8.86679 26.2559 11.5997 27.5129 15.1356 27.5129C16.2339 27.5129 17.1242 28.4054 17.1242 29.5064C17.1242 30.6075 16.2339 31.5 15.1356 31.5C10.5955 31.5 6.75491 29.8519 4.06395 26.8925C1.39091 23.9528 0 19.8851 0 15.2814Z" fill="#DC32AC"/>
<defs>
<clipPath id="clip0_41926_144">
<rect width="16" height="16" fill="white" transform="translate(7 7.5)"/>
</clipPath>
</defs>
</svg>
